<svg width="40" height="40" viewBox="0 0 40 40" fill="none" xmlns="http://www.w3.org/2000/svg">
<path fill-rule="evenodd" clip-rule="evenodd" d="M7.65601 18.9118C7.55855 17.8881 7.5 17.1303 7.5 16.8339C7.5 13.5625 8.70634 10.9373 10.7628 9.07945C12.8464 7.19711 15.984 5.94559 20.065 5.83945C24.0566 5.73564 27.1449 6.96453 29.2145 8.8811C31.28 10.7939 32.5 13.5444 32.5 16.8339C32.5 17.1374 32.454 17.8952 32.3734 18.9102C31.2667 18.4605 29.81 17.6702 28.702 18.5308C27.9811 19.0908 27.8851 20.2253 27.693 22.4943L27.4262 25.6464C27.3384 26.6843 27.0708 28.0412 27.936 28.8342C28.7049 29.539 29.7085 29.3199 30.646 29.1516C30.9249 29.1015 31.1987 29.0353 31.4593 28.9595C30.2896 31.276 28.402 33.0479 26.2382 34.2093H19.9584C19.0609 34.2093 18.3333 34.9369 18.3333 35.8344C18.3333 36.7319 19.1667 37.4698 19.9792 37.4698C25.9182 37.4698 32.7676 33.4938 34.1372 26.1826L34.1338 26.1819C34.4048 24.0964 34.6179 22.0035 34.7994 19.9085C34.9246 18.4442 35 17.2893 35 16.8339C35 8.96323 29.1017 3.10358 20 3.3403C10.8983 3.57702 5 8.96323 5 16.8339C5 17.289 5.09079 18.4443 5.23746 19.907C5.53232 22.8479 5.75847 25.2159 6.08942 26.9299C6.20911 27.5498 6.46411 28.0157 7.03053 28.3339C7.54395 28.6222 8.43594 28.9808 9.38734 29.1516C10.3178 29.3186 11.3191 29.5402 12.0862 28.8444C12.9619 28.05 12.6956 26.6921 12.6071 25.6464L12.3404 22.4943C12.2357 21.2575 12.3761 19.14 11.1251 18.3896C10.0682 17.7555 8.65692 18.505 7.65601 18.9118ZM32.1354 21.5148L32.1408 21.517C31.9514 23.4336 31.7455 25.0738 31.5223 26.2812C30.9866 26.5216 30.4231 26.6545 29.8475 26.7542C29.9668 24.7817 30.0945 22.7749 30.3706 20.8163C30.7758 20.9575 31.3219 21.1796 32.1354 21.5148ZM7.89255 21.517C8.08197 23.4336 8.28791 25.0738 8.51107 26.2812C9.04679 26.5216 9.61025 26.6545 10.1858 26.7542C10.0666 24.7817 9.93891 22.7749 9.6628 20.8164C9.25757 20.9575 8.71144 21.1796 7.89799 21.5148L7.89255 21.517Z" fill="#0A0A0B"/>
</svg>
