<svg width="40" height="40" viewBox="0 0 40 40" fill="none" xmlns="http://www.w3.org/2000/svg">
<g clip-path="url(#clip0_18_23754)">
<path fill-rule="evenodd" clip-rule="evenodd" d="M12.8807 4.88273C14.0202 4.36563 15.1935 3.98751 16.3796 3.74278L16.7317 1.08372C16.7949 0.60672 17.1767 0.235118 17.6552 0.184823C18.1338 0.134523 18.5845 0.4187 18.7454 0.872211L19.643 3.40172C20.877 3.39554 22.1043 3.52681 23.3017 3.7893L24.7066 1.4988C24.9582 1.08864 25.4581 0.904339 25.9157 1.05303C26.3733 1.20171 26.6694 1.64462 26.6319 2.12431L26.4224 4.80252C27.5429 5.29243 28.6132 5.90693 29.6103 6.6399L31.8229 5.12128C32.2197 4.849 32.7513 4.88402 33.1088 5.20598C33.4664 5.52796 33.5568 6.05304 33.3275 6.47605L32.0479 8.83597C32.8756 9.74611 33.5956 10.7477 34.2074 11.8145L36.8506 11.3255C37.3238 11.238 37.7953 11.4861 37.991 11.9257C38.1867 12.3653 38.0557 12.8816 37.6742 13.1747L35.5447 14.8105C35.9381 15.9929 36.1914 17.1999 36.3104 18.4097L38.9204 19.0378C39.3882 19.1504 39.7179 19.5689 39.7179 20.05C39.7179 20.5312 39.3881 20.9497 38.9202 21.0622L36.3076 21.6905C36.1852 22.9153 35.9279 24.1224 35.5417 25.2884L37.6739 26.9255C38.0556 27.2186 38.1867 27.735 37.991 28.1746C37.7953 28.6141 37.3239 28.8623 36.8508 28.7749L34.2096 28.2867C33.6072 29.3471 32.8848 30.3473 32.0484 31.2647L33.3276 33.6242C33.5569 34.0472 33.4665 34.5722 33.1089 34.8941C32.7513 35.2161 32.2196 35.2511 31.8229 34.9787L29.6082 33.458C28.6285 34.177 27.5349 34.8085 26.4224 35.2976L26.6319 37.9758C26.6694 38.4555 26.3733 38.8985 25.9156 39.0472C25.458 39.1959 24.9582 39.0117 24.7065 38.6016L23.3028 36.3147C22.0901 36.5805 20.8627 36.7062 19.6431 36.6978L18.7454 39.2281C18.5845 39.6815 18.1338 39.9657 17.6553 39.9154C17.1768 39.8651 16.795 39.4934 16.732 39.0163L16.38 36.353C15.1771 36.1045 14.0029 35.7236 12.8809 35.2171L11.0313 37.1641C10.6999 37.513 10.1725 37.5893 9.75576 37.3486C9.33908 37.1081 9.14147 36.6133 9.27775 36.1519L10.0374 33.5797C9.04904 32.8717 8.13052 32.0482 7.3031 31.1163L4.82352 32.1413C4.37886 32.3251 3.86618 32.1802 3.58337 31.791C3.30051 31.4017 3.32128 30.8692 3.6336 30.5031L5.37634 28.4603C4.75818 27.3969 4.25136 26.272 3.87701 25.0998L1.19558 25.0276C0.714537 25.0146 0.305031 24.6737 0.204981 24.203C0.104935 23.7324 0.340369 23.2544 0.774508 23.0469L3.19327 21.8906C3.05709 20.6604 3.06089 19.4259 3.19703 18.2104L0.774571 17.0531C0.340415 16.8457 0.104938 16.3678 0.204978 15.8971C0.305024 15.4265 0.714563 15.0857 1.19559 15.0728L3.87957 15.0009C4.25108 13.8326 4.75188 12.7042 5.37444 11.6385L3.63345 9.59711C3.3212 9.23095 3.30049 8.69854 3.58334 8.30923C3.86617 7.91994 4.37888 7.77511 4.82359 7.95886L7.30152 8.98277C8.10666 8.07802 9.02126 7.25134 10.039 6.52316L9.27792 3.94831C9.14155 3.48687 9.33912 2.99209 9.75583 2.7515C10.1725 2.51091 10.6998 2.58721 11.0313 2.93605L12.8807 4.88273ZM14.53 7.74217L18.3888 14.4258C18.8431 14.3134 19.3186 14.2551 19.808 14.2579C22.4174 14.2733 24.6106 16.0238 25.3003 18.4092L33.0085 18.4092C32.7957 16.6826 32.2402 14.9692 31.3156 13.3677C27.9028 7.45658 20.6562 5.13891 14.53 7.74217ZM33.0058 21.6905H25.2762C24.5534 24.0592 22.3439 25.776 19.7405 25.7607C19.2893 25.7581 18.8505 25.7035 18.4298 25.6028L14.5303 32.357C18.2565 33.9316 22.6506 33.8023 26.4239 31.6237C30.1972 29.4452 32.5062 25.7046 33.0058 21.6905ZM11.6873 30.7187L15.5913 23.9568C14.6112 22.9186 14.0138 21.516 14.0229 19.9755C14.0317 18.4746 14.6147 17.1113 15.5623 16.0927L11.6884 9.38285C6.37116 13.3868 4.75522 20.8211 8.16791 26.732C9.09249 28.3335 10.2985 29.6711 11.6873 30.7187ZM19.7597 22.4795C21.124 22.4876 22.2364 21.3881 22.2445 20.0238C22.2525 18.6596 21.153 17.5471 19.7888 17.5391C18.4245 17.5311 17.3121 18.6306 17.3041 19.9948C17.296 21.3591 18.3955 22.4715 19.7597 22.4795Z" fill="#0A0A0B"/>
</g>
<defs>
<clipPath id="clip0_18_23754">
<rect width="40" height="40" fill="white"/>
</clipPath>
</defs>
</svg>
