<svg width="40" height="40" viewBox="0 0 40 40" fill="none" xmlns="http://www.w3.org/2000/svg">
<path fill-rule="evenodd" clip-rule="evenodd" d="M36.2167 5C36.9255 5 37.5 5.57454 37.5 6.28327V7.47225C37.5 12.7908 33.9706 17.2391 29.1834 18.6918C27.9564 21.8899 25.1323 24.2342 21.7513 24.8438L22.206 28.4813C22.3832 29.8989 23.4136 31.0617 24.7996 31.4082L27.2359 32.0173C28.3706 32.301 29.1667 33.3205 29.1667 34.4902C29.1667 34.7718 28.9384 35 28.6569 35H11.3431C11.0616 35 10.8333 34.7718 10.8333 34.4902C10.8333 33.3205 11.6294 32.301 12.7641 32.0173L15.2004 31.4082C16.5864 31.0617 17.6168 29.8989 17.794 28.4813L18.2487 24.8439C14.8674 24.2344 12.0432 21.8899 10.8162 18.6916C6.02921 17.2388 2.5 12.7907 2.5 7.47225V6.28327C2.5 5.57454 3.07454 5 3.78327 5H36.2167ZM8.74981 7.5H5.00004C5.01068 11.126 7.10661 14.2342 10.1222 15.7342L8.74981 7.5ZM29.8774 15.7344C32.8932 14.2345 34.9893 11.1261 35 7.5H31.2498L29.8774 15.7344ZM12.7625 16.3691L11.2843 7.5H28.7153L27.2371 16.3691C26.6475 19.9069 23.5865 22.5 19.9998 22.5C16.4131 22.5 13.3521 19.9069 12.7625 16.3691Z" fill="#0A0A0B"/>
</svg>
