<svg width="26" height="18" viewBox="0 0 26 18" fill="none" xmlns="http://www.w3.org/2000/svg"><path id="path1" fill-rule="evenodd" clip-rule="evenodd" d="M0 1.2C0 0.537258 0.506113 0 1.13043 0H24.8696C25.4939 0 26 0.537258 26 1.2C26 1.86274 25.4939 2.4 24.8696 2.4H1.13043C0.506113 2.4 0 1.86274 0 1.2Z" fill="#40465A"></path><path id="path2" fill-rule="evenodd" clip-rule="evenodd" d="M0 9C0 8.33726 0.506113 7.8 1.13043 7.8H24.8696C25.4939 7.8 26 8.33726 26 9C26 9.66274 25.4939 10.2 24.8696 10.2H1.13043C0.506113 10.2 0 9.66274 0 9Z" fill="#40465A"></path><path id="path3" fill-rule="evenodd" clip-rule="evenodd" d="M0 16.8C0 16.1373 0.506113 15.6 1.13043 15.6H24.8696C25.4939 15.6 26 16.1373 26 16.8C26 17.4627 25.4939 18 24.8696 18H1.13043C0.506113 18 0 17.4627 0 16.8Z" fill="#40465A"></path></svg>