<svg width="40" height="40" viewBox="0 0 40 40" fill="none" xmlns="http://www.w3.org/2000/svg">
<path fill-rule="evenodd" clip-rule="evenodd" d="M34.1666 20C34.1666 27.8241 27.824 34.1667 19.9999 34.1667C12.1759 34.1667 5.83325 27.8241 5.83325 20C5.83325 12.176 12.1759 5.83337 19.9999 5.83337C27.824 5.83337 34.1666 12.176 34.1666 20ZM19.9999 36.6667C29.2047 36.6667 36.6666 29.2048 36.6666 20C36.6666 10.7953 29.2047 3.33337 19.9999 3.33337C10.7952 3.33337 3.33325 10.7953 3.33325 20C3.33325 29.2048 10.7952 36.6667 19.9999 36.6667ZM20.4166 12.5C20.4166 11.8097 19.8569 11.25 19.1666 11.25C18.4762 11.25 17.9166 11.8097 17.9166 12.5V20.8334C17.9166 21.3068 18.1841 21.7397 18.6076 21.9514L25.8071 25.5512C26.4245 25.8599 27.1754 25.6096 27.4841 24.9921C27.7929 24.3747 27.5426 23.6238 26.9251 23.3151L20.4166 20.0608V12.5Z" fill="#0A0A0B"/>
</svg>
