<svg width="37" height="36" viewBox="0 0 37 36" fill="none" xmlns="http://www.w3.org/2000/svg">
<mask id="mask0_205_118" style="mask-type:alpha" maskUnits="userSpaceOnUse" x="-1" y="0" width="38" height="36">
<path fill-rule="evenodd" clip-rule="evenodd" d="M10.7772 2.1792C19.945 -0.884436 30.0265 2.2996 29.0172 5.91235C28.9679 6.08874 28.8784 6.26819 28.7522 6.45038C32.6291 7.65475 35.035 9.53477 34.6523 11.3711C34.4661 12.2644 33.6184 13.1886 32.3263 14.1247C35.0123 15.4047 36.5873 17.06 36.2854 18.8408C35.7972 21.72 27.6858 24.8785 20.8551 27.5382C19.0368 28.2462 17.3093 28.9189 15.8405 29.5416C20.9146 29.737 27.454 28.9294 33.6719 26.0166C34.183 25.7772 34.5301 25.6844 34.6412 25.8794C34.8765 26.2923 32.7811 27.8902 29.5419 29.2349C23.6955 31.6618 17.3455 32.0684 12.1817 31.377C11.7589 31.6738 11.4937 31.9471 11.4221 32.1936C11.0454 33.4907 18.9118 35.8095 27.9769 32.7874C28.7575 32.5271 29.0699 32.4582 29.1667 32.6243C29.3777 32.9861 27.3908 34.0483 25.5449 34.6651C16.3771 37.7287 6.29563 34.5447 7.3049 30.932C7.35496 30.7528 7.44653 30.5704 7.57594 30.3852C3.69735 29.1809 1.2902 27.3004 1.67302 25.4636C1.85874 24.5725 2.70291 23.6505 3.98979 22.7168C1.30746 21.4371 -0.264969 19.7829 0.0367075 18.0036C0.524853 15.1243 8.63628 11.9659 15.467 9.30606C17.2939 8.59469 19.0293 7.91898 20.5026 7.29383C15.426 7.09583 8.87863 7.90194 2.65343 10.8181C2.1423 11.0575 1.79519 11.1503 1.68411 10.9553C1.44886 10.5424 3.54418 8.94448 6.7834 7.59985C12.6331 5.17157 18.987 4.76591 24.1523 5.45886C24.5682 5.1653 24.8291 4.89491 24.9 4.65071C25.2767 3.35361 17.4103 1.03477 8.34518 4.05694C7.56456 4.31718 7.25224 4.38608 7.15536 4.21998C6.94436 3.85822 8.93129 2.79605 10.7772 2.1792ZM26.6851 8.17525C24.9041 9.27394 22.2978 10.4262 19.483 11.5717C21.9659 11.6019 24.3768 11.8616 26.5618 12.3006C28.2639 11.4438 29.3796 10.6955 29.5365 10.0984C29.7068 9.45083 28.6245 8.72846 26.6851 8.17525ZM13.6317 13.8857C8.63096 15.8564 4.30027 17.676 4.10691 19.0057C4.00661 19.6954 4.86699 20.4886 6.41891 21.2017C8.65117 19.9669 11.4459 18.7295 14.3154 17.5325C15.7258 16.9366 17.1537 16.3508 18.541 15.7816C20.1475 15.1225 21.6995 14.4857 23.1066 13.8817C20.2932 13.5197 17.0334 13.4519 13.6317 13.8857ZM9.74898 24.5414C8.05503 25.3952 6.94533 26.1409 6.78879 26.7363C6.61828 27.3848 7.70398 28.1084 9.64862 28.6619C11.4293 27.5653 14.0304 26.4156 16.8391 25.2726C14.3519 25.2423 11.937 24.9818 9.74898 24.5414ZM22.6904 22.9586C19.2827 23.3932 16.0176 23.3244 13.2008 22.9607C14.6126 22.3544 16.171 21.715 17.7843 21.0531L17.7843 21.0531L17.7845 21.053C19.1718 20.4839 20.5997 19.898 22.01 19.3022C24.8748 18.1072 27.6651 16.8718 29.8955 15.639C31.4522 16.3531 32.3156 17.1477 32.2152 17.8386C32.0218 19.1683 27.6911 20.9879 22.6904 22.9586Z" fill="black"/>
</mask>
<g mask="url(#mask0_205_118)">
<path fill-rule="evenodd" clip-rule="evenodd" d="M10.7772 2.1792C19.945 -0.884436 30.0265 2.2996 29.0172 5.91235C28.9679 6.08874 28.8784 6.26819 28.7522 6.45038C32.6291 7.65475 35.035 9.53477 34.6523 11.3711C34.4661 12.2644 33.6184 13.1886 32.3263 14.1247C35.0123 15.4047 36.5873 17.06 36.2854 18.8408C35.7972 21.72 27.6858 24.8785 20.8551 27.5382C19.0368 28.2462 17.3093 28.9189 15.8405 29.5416C20.9146 29.737 27.454 28.9294 33.6719 26.0166C34.183 25.7772 34.5301 25.6844 34.6412 25.8794C34.8765 26.2923 32.7811 27.8902 29.5419 29.2349C23.6955 31.6618 17.3455 32.0684 12.1817 31.377C11.7589 31.6738 11.4937 31.9471 11.4221 32.1936C11.0454 33.4907 18.9118 35.8095 27.9769 32.7874C28.7575 32.5271 29.0699 32.4582 29.1667 32.6243C29.3777 32.9861 27.3908 34.0483 25.5449 34.6651C16.3771 37.7287 6.29563 34.5447 7.3049 30.932C7.35496 30.7528 7.44653 30.5704 7.57594 30.3852C3.69735 29.1809 1.2902 27.3004 1.67302 25.4636C1.85874 24.5725 2.70291 23.6505 3.98979 22.7168C1.30746 21.4371 -0.264969 19.7829 0.0367075 18.0036C0.524853 15.1243 8.63628 11.9659 15.467 9.30606C17.2939 8.59469 19.0293 7.91898 20.5026 7.29383C15.426 7.09583 8.87863 7.90194 2.65343 10.8181C2.1423 11.0575 1.79519 11.1503 1.68411 10.9553C1.44886 10.5424 3.54418 8.94448 6.7834 7.59985C12.6331 5.17157 18.987 4.76591 24.1523 5.45886C24.5682 5.1653 24.8291 4.89491 24.9 4.65071C25.2767 3.35361 17.4103 1.03477 8.34518 4.05694C7.56456 4.31718 7.25224 4.38608 7.15536 4.21998C6.94436 3.85822 8.93129 2.79605 10.7772 2.1792ZM26.6851 8.17525C24.9041 9.27394 22.2978 10.4262 19.483 11.5717C21.9659 11.6019 24.3768 11.8616 26.5618 12.3006C28.2639 11.4438 29.3796 10.6955 29.5365 10.0984C29.7068 9.45083 28.6245 8.72846 26.6851 8.17525ZM13.6317 13.8857C8.63096 15.8564 4.30027 17.676 4.10691 19.0057C4.00661 19.6954 4.86699 20.4886 6.41891 21.2017C8.65117 19.9669 11.4459 18.7295 14.3154 17.5325C15.7258 16.9366 17.1537 16.3508 18.541 15.7816C20.1475 15.1225 21.6995 14.4857 23.1066 13.8817C20.2932 13.5197 17.0334 13.4519 13.6317 13.8857ZM9.74898 24.5414C8.05503 25.3952 6.94533 26.1409 6.78879 26.7363C6.61828 27.3848 7.70398 28.1084 9.64862 28.6619C11.4293 27.5653 14.0304 26.4156 16.8391 25.2726C14.3519 25.2423 11.937 24.9818 9.74898 24.5414ZM22.6904 22.9586C19.2827 23.3932 16.0176 23.3244 13.2008 22.9607C14.6126 22.3544 16.171 21.715 17.7843 21.0531L17.7843 21.0531L17.7845 21.053C19.1718 20.4839 20.5997 19.898 22.01 19.3022C24.8748 18.1072 27.6651 16.8718 29.8955 15.639C31.4522 16.3531 32.3156 17.1477 32.2152 17.8386C32.0218 19.1683 27.6911 20.9879 22.6904 22.9586Z" fill="url(#paint0_linear_205_118)"/>
<path d="M7.30495 30.9332C6.29568 34.546 16.3771 37.73 25.5449 34.6664C27.3908 34.0495 29.3778 32.9874 29.1668 32.6256C29.0699 32.4595 28.7576 32.5284 27.977 32.7886C18.9119 35.8108 11.0454 33.492 11.4221 32.1949C11.7438 31.0873 15.9722 29.4408 20.8551 27.5395C27.6859 24.8797 35.7973 21.7213 36.2854 18.842C36.5881 17.0568 35.0044 15.3977 32.3061 14.1163C31.6106 14.6153 30.7871 15.1206 29.8695 15.6284C31.4427 16.3455 32.3163 17.1451 32.2152 17.8398C32.0008 19.3148 26.6959 21.3925 21.0325 23.6106C14.6982 26.0914 7.91546 28.7479 7.30495 30.9332Z" fill="url(#paint1_linear_205_118)"/>
<path d="M19.4831 11.5729C21.9846 11.6034 24.413 11.8668 26.611 12.3118C25.6353 12.8113 24.4696 13.3403 23.1828 13.8929C20.3521 13.5223 17.0642 13.4493 13.6318 13.8869C14.1779 13.6717 14.7321 13.4547 15.2897 13.2363C16.6894 12.6881 18.111 12.1313 19.4831 11.5729Z" fill="url(#paint2_linear_205_118)"/>
<path d="M29.0172 5.91236C30.0265 2.2996 19.945 -0.884437 10.7772 2.1792C8.93129 2.79606 6.94436 3.85822 7.15536 4.21998C7.25224 4.38608 7.56456 4.31718 8.34518 4.05694C17.4103 1.03477 25.2767 3.35361 24.9 4.65072C24.5784 5.75824 20.3499 7.40474 15.467 9.30606C8.63628 11.9659 0.524853 15.1243 0.0367075 18.0036C-0.265952 19.7887 1.31773 21.4479 4.01604 22.7293C4.71158 22.2303 5.53505 21.725 6.45267 21.2172C4.87948 20.5001 4.00589 19.7004 4.10691 19.0058C4.32139 17.5308 9.62625 15.4531 15.2896 13.235C21.6239 10.7542 28.4067 8.0977 29.0172 5.91236Z" fill="url(#paint3_linear_205_118)"/>
<path d="M16.839 25.2727C14.3375 25.2422 11.9091 24.9788 9.71118 24.5338C10.6868 24.0343 11.8525 23.5053 13.1394 22.9527C15.9701 23.3233 19.2579 23.3963 22.6904 22.9586C22.1442 23.1739 21.5901 23.3909 21.0325 23.6093C19.6328 24.1575 18.2111 24.7143 16.839 25.2727Z" fill="url(#paint4_linear_205_118)"/>
<path d="M6.78339 7.5998C12.6331 5.17152 18.987 4.76586 24.1523 5.45881C23.3877 5.99851 22.0989 6.61648 20.5026 7.29379C15.426 7.09578 8.87863 7.90189 2.65342 10.8181C2.14229 11.0575 1.79518 11.1502 1.6841 10.9553C1.44885 10.5424 3.54417 8.94443 6.78339 7.5998Z" fill="url(#paint5_linear_205_118)"/>
<path d="M28.7522 6.45034C28.3691 7.00332 27.6477 7.58145 26.6851 8.17521C28.6245 8.72842 29.7068 9.45079 29.5365 10.0983C29.1911 11.4121 24.2048 13.4579 18.541 15.7816C17.1538 16.3507 15.7259 16.9365 14.3156 17.5323C8.08257 20.1324 2.20244 22.9233 1.67301 25.4635C1.29016 27.3005 3.69768 29.1811 7.57674 30.3854C7.96329 29.8329 8.68673 29.2554 9.65011 28.6623C7.70453 28.1087 6.61823 27.385 6.78878 26.7363C7.1342 25.4225 12.1205 23.3768 17.7843 21.0531C19.1715 20.4839 20.5993 19.8982 22.0095 19.3024C28.2426 16.7023 34.1229 13.9113 34.6523 11.3711C35.035 9.53473 32.6291 7.65471 28.7522 6.45034Z" fill="url(#paint6_linear_205_118)"/>
<path d="M15.8434 29.5416C14.2455 30.2189 12.9534 30.8371 12.1833 31.3772C17.3468 32.0682 23.6961 31.6615 29.5419 29.2348C32.7811 27.8902 34.8765 26.2923 34.6412 25.8794C34.5301 25.6844 34.183 25.7771 33.6719 26.0166C27.4551 28.9288 20.9171 29.7367 15.8434 29.5416Z" fill="url(#paint7_linear_205_118)"/>
<path fill-rule="evenodd" clip-rule="evenodd" d="M12.6597 35.0942C16.1625 35.9497 20.9333 35.9803 25.4767 34.4621C26.3885 34.1574 27.3345 33.7427 28.0229 33.3618C28.3688 33.1705 28.6399 32.993 28.8087 32.8473C28.8497 32.8119 28.8818 32.7808 28.9063 32.7542C28.8928 32.7556 28.8779 32.7576 28.8611 32.7601C28.6944 32.7859 28.4386 32.8618 28.0451 32.993C23.4801 34.5149 19.215 34.6929 16.1334 34.3254C14.5938 34.1418 13.3412 33.821 12.4906 33.458C12.0672 33.2773 11.73 33.0805 11.5074 32.875C11.292 32.6762 11.1331 32.4177 11.2153 32.1348C11.2701 31.946 11.4002 31.7682 11.5678 31.6019C11.7377 31.4333 11.9613 31.2617 12.2269 31.0875C12.7582 30.7389 13.4809 30.3646 14.3379 29.9693C16.0516 29.1788 18.3342 28.2899 20.7712 27.341L20.7769 27.3388C24.1951 26.0078 27.9202 24.5571 30.8519 23.0807C32.318 22.3423 33.5762 21.6021 34.4952 20.8729C35.423 20.1367 35.9651 19.4426 36.073 18.806C36.2106 17.9946 35.9249 17.1964 35.2587 16.4318C34.6091 15.6862 33.6074 14.9858 32.3275 14.3655C31.7412 14.7792 31.0713 15.1958 30.3373 15.6131C30.9586 15.924 31.4609 16.2519 31.8173 16.5852C32.2374 16.9781 32.4943 17.4178 32.4284 17.8708C32.3933 18.1127 32.2581 18.3439 32.0677 18.562C31.8758 18.7818 31.614 19.0038 31.2985 19.2276C30.6673 19.6752 29.7939 20.1488 28.7598 20.6411C26.692 21.6254 23.9443 22.7015 21.1174 23.8087L21.1111 23.8111C17.9414 25.0525 14.671 26.3336 12.1166 27.5764C10.839 28.198 9.74896 28.8061 8.94314 29.3904C8.12672 29.9824 7.64378 30.521 7.51243 30.9912C7.29349 31.7749 7.66015 32.5703 8.57468 33.3034C9.48766 34.0352 10.9066 34.666 12.6597 35.0942ZM30.1098 15.7412C31.5311 16.4286 32.311 17.1814 32.2152 17.8398C32.0008 19.3148 26.6959 21.3925 21.0325 23.6106C14.6982 26.0914 7.91546 28.7479 7.30495 30.9332C6.29568 34.546 16.3771 37.73 25.5449 34.6664C27.3908 34.0495 29.3778 32.9874 29.1668 32.6256C29.0699 32.4595 28.7576 32.5284 27.977 32.7886C18.9119 35.8108 11.0454 33.492 11.4221 32.1949C11.7438 31.0873 15.9722 29.4408 20.8551 27.5395C27.6859 24.8797 35.7973 21.7213 36.2854 18.842C36.5881 17.0568 35.0044 15.3977 32.3061 14.1163C31.6698 14.5728 30.9265 15.0346 30.1019 15.4987C30.0251 15.5419 29.9476 15.5851 29.8695 15.6284C29.9515 15.6658 30.0316 15.7034 30.1098 15.7412ZM28.969 32.6682C28.969 32.6682 28.9689 32.6685 28.9687 32.6691C28.9689 32.6685 28.969 32.6682 28.969 32.6682Z" fill="url(#paint8_linear_205_118)"/>
<path fill-rule="evenodd" clip-rule="evenodd" d="M23.6625 1.75141C20.1596 0.895872 15.3888 0.865261 10.8455 2.38352C9.93369 2.68822 8.98769 3.10288 8.29923 3.48375C7.95335 3.6751 7.6822 3.85263 7.51345 3.99831C7.47243 4.03372 7.44037 4.06479 7.41589 4.09136C7.4293 4.08995 7.44429 4.08802 7.461 4.08544C7.62769 4.0597 7.88358 3.98375 8.27705 3.85257C12.842 2.33067 17.1071 2.15265 20.1888 2.52019C21.7283 2.7038 22.981 3.02458 23.8316 3.38759C24.255 3.56829 24.5922 3.76505 24.8148 3.97055C25.0301 4.1694 25.1891 4.42784 25.1069 4.7108C25.052 4.89962 24.922 5.07734 24.7543 5.24367C24.5844 5.4123 24.3609 5.58384 24.0952 5.7581C23.5639 6.10669 22.8413 6.48099 21.9842 6.87634C20.2706 7.66681 17.988 8.55564 15.551 9.50457L15.5452 9.50681C12.127 10.8378 8.40197 12.2885 5.47029 13.7649C4.00411 14.5033 2.74596 15.2435 1.82696 15.9727C0.899173 16.7089 0.357034 17.403 0.249102 18.0396C0.111537 18.851 0.397242 19.6492 1.06343 20.4138C1.71307 21.1594 2.71471 21.8598 3.99467 22.4801C4.58094 22.0664 5.25081 21.6498 5.98485 21.2325C5.36357 20.9216 4.86121 20.5937 4.5048 20.2604C4.08477 19.8675 3.82784 19.4278 3.89372 18.9748C3.92889 18.7329 4.06403 18.5017 4.25443 18.2836C4.44637 18.0638 4.7081 17.8418 5.02366 17.618C5.65485 17.1704 6.52825 16.6968 7.56234 16.2045C9.63019 15.2202 12.3778 14.1441 15.2047 13.0369L15.211 13.0344C18.3807 11.793 21.6511 10.512 24.2056 9.26917C25.4831 8.6476 26.5732 8.03952 27.379 7.4552C28.1954 6.86318 28.6784 6.32455 28.8097 5.85439C29.0287 5.07068 28.662 4.27527 27.7475 3.54218C26.8345 2.81034 25.4156 2.17957 23.6625 1.75141ZM6.2123 21.1044C4.79102 20.417 4.01116 19.6642 4.10691 19.0058C4.32139 17.5308 9.62625 15.4531 15.2896 13.235C21.6239 10.7542 28.4067 8.0977 29.0172 5.91236C30.0265 2.2996 19.945 -0.884437 10.7772 2.1792C8.93129 2.79606 6.94436 3.85822 7.15536 4.21998C7.25224 4.38608 7.56456 4.31719 8.34518 4.05694C17.4103 1.03477 25.2767 3.35361 24.9 4.65072C24.5784 5.75824 20.3499 7.40475 15.467 9.30607C8.63628 11.9659 0.524853 15.1243 0.0367075 18.0036C-0.265952 19.7888 1.31773 21.4479 4.01604 22.7293C4.65234 22.2728 5.39569 21.811 6.22025 21.3469C6.29703 21.3037 6.37451 21.2605 6.45267 21.2172C6.37063 21.1798 6.29049 21.1422 6.2123 21.1044ZM7.35314 4.17739C7.35312 4.1774 7.35321 4.1771 7.35346 4.17647C7.35328 4.17707 7.35315 4.17738 7.35314 4.17739Z" fill="url(#paint9_linear_205_118)"/>
<path fill-rule="evenodd" clip-rule="evenodd" d="M14.399 17.7309L14.3986 17.7311C11.2826 19.0309 8.26562 20.3741 5.96338 21.7068C4.81205 22.3733 3.84738 23.0326 3.14042 23.6774C2.42937 24.3259 2.00248 24.9386 1.88391 25.5075C1.71701 26.3082 2.14775 27.1639 3.1631 27.995C4.14712 28.8004 5.63788 29.5434 7.49501 30.1339C7.85787 29.6694 8.42638 29.2013 9.13806 28.7326C8.3665 28.4854 7.74346 28.2075 7.30584 27.9138C7.04603 27.7394 6.83945 27.5514 6.70932 27.3498C6.57653 27.1441 6.51892 26.9154 6.58043 26.6815C6.63714 26.4658 6.78147 26.2583 6.97342 26.0603C7.1677 25.8598 7.42576 25.6538 7.73459 25.4429C8.35237 25.021 9.19633 24.564 10.1984 24.0794C12.202 23.1104 14.8694 22.0161 17.6969 20.8561L17.7025 20.8537C19.0899 20.2845 20.5167 19.6992 21.9257 19.1039L21.9261 19.1037L21.9266 19.1035C25.0425 17.8037 28.0596 16.4605 30.3619 15.1278C31.5132 14.4614 32.4779 13.802 33.1849 13.1572C33.8959 12.5087 34.3228 11.896 34.4414 11.3271C34.6082 10.5266 34.1778 9.67118 33.1632 8.84038C32.1799 8.03532 30.6903 7.29247 28.8346 6.70203C28.474 7.16718 27.9069 7.63579 27.1963 8.10483C27.9652 8.35184 28.5861 8.62933 29.0222 8.92261C29.2811 9.09676 29.487 9.28446 29.6167 9.4858C29.749 9.69126 29.8063 9.91956 29.7449 10.1531C29.6882 10.3688 29.5438 10.5763 29.3519 10.7743C29.1576 10.9748 28.8995 11.1808 28.5907 11.3917C27.9729 11.8136 27.129 12.2705 26.1269 12.7551C24.1233 13.7241 21.456 14.8185 18.6284 15.9785L18.6228 15.9808C17.2354 16.5501 15.8085 17.1354 14.3995 17.7308L14.399 17.7309ZM26.9611 8.2568C28.7265 8.79825 29.6985 9.48215 29.5365 10.0983C29.1911 11.4121 24.2048 13.4578 18.541 15.7815C17.1538 16.3507 15.7259 16.9365 14.3156 17.5323C8.08257 20.1324 2.20244 22.9233 1.67301 25.4635C1.29016 27.3005 3.69768 29.1811 7.57674 30.3854C7.92992 29.8806 8.56433 29.3549 9.40602 28.8155C9.48555 28.7645 9.56694 28.7134 9.65011 28.6622C9.55596 28.6354 9.46382 28.6082 9.37374 28.5807C7.60233 28.0388 6.62648 27.3535 6.78878 26.7363C7.1342 25.4225 12.1205 23.3767 17.7843 21.053C19.1715 20.4839 20.5993 19.8981 22.0095 19.3023C28.2426 16.7023 34.1229 13.9113 34.6523 11.3711C35.035 9.53471 32.6291 7.65469 28.7522 6.45032C28.4022 6.95561 27.7696 7.48189 26.9287 8.02192C26.8494 8.07289 26.7682 8.12398 26.6851 8.17519C26.7791 8.202 26.8711 8.22922 26.9611 8.2568Z" fill="url(#paint10_linear_205_118)"/>
<g style="mix-blend-mode:color">
<rect x="-0.424438" y="0.342651" width="36.8634" height="36.3956" fill="url(#paint11_linear_205_118)"/>
</g>
</g>
<defs>
<linearGradient id="paint0_linear_205_118" x1="18.161" y1="0.947388" x2="18.161" y2="35.8969" gradientUnits="userSpaceOnUse">
<stop stop-color="#7A7A7A"/>
<stop offset="1" stop-color="#7D7D7D"/>
</linearGradient>
<linearGradient id="paint1_linear_205_118" x1="25.7317" y1="35.9432" x2="18.4505" y2="10.9839" gradientUnits="userSpaceOnUse">
<stop offset="0.578043" stop-color="#7C7C7C"/>
<stop offset="0.681206" stop-color="#ACABAB"/>
<stop offset="0.866149" stop-color="#D1D1D1"/>
<stop offset="0.99877" stop-color="#EEEEEE"/>
</linearGradient>
<linearGradient id="paint2_linear_205_118" x1="25.7317" y1="35.9432" x2="18.4505" y2="10.9839" gradientUnits="userSpaceOnUse">
<stop offset="0.578043" stop-color="#7C7C7C"/>
<stop offset="0.681206" stop-color="#ACABAB"/>
<stop offset="0.866149" stop-color="#D1D1D1"/>
<stop offset="0.99877" stop-color="#EEEEEE"/>
</linearGradient>
<linearGradient id="paint3_linear_205_118" x1="10.6346" y1="0.902364" x2="17.892" y2="25.8805" gradientUnits="userSpaceOnUse">
<stop offset="0.578043" stop-color="#797979"/>
<stop offset="0.749694" stop-color="#BFBFBF"/>
<stop offset="0.875586" stop-color="#D9D9D9"/>
<stop offset="1" stop-color="#F3F3F3"/>
</linearGradient>
<linearGradient id="paint4_linear_205_118" x1="10.6346" y1="0.902364" x2="17.892" y2="25.8805" gradientUnits="userSpaceOnUse">
<stop offset="0.578043" stop-color="#797979"/>
<stop offset="0.749694" stop-color="#BFBFBF"/>
<stop offset="0.875586" stop-color="#D9D9D9"/>
<stop offset="1" stop-color="#F3F3F3"/>
</linearGradient>
<linearGradient id="paint5_linear_205_118" x1="13.1723" y1="5.15515" x2="22.7273" y2="32.1776" gradientUnits="userSpaceOnUse">
<stop offset="0.0707273" stop-color="#797979"/>
<stop offset="0.162345" stop-color="#BABABA"/>
<stop offset="0.279225" stop-color="#B8B8B8"/>
<stop offset="0.381534" stop-color="#7A7A7A"/>
<stop offset="0.621584" stop-color="#7D7D7D"/>
<stop offset="0.722007" stop-color="#B1B1B1"/>
<stop offset="0.857232" stop-color="#BFBFBF"/>
<stop offset="0.950969" stop-color="#7D7D7D"/>
</linearGradient>
<linearGradient id="paint6_linear_205_118" x1="13.1723" y1="5.15515" x2="22.7273" y2="32.1776" gradientUnits="userSpaceOnUse">
<stop offset="0.0707273" stop-color="#797979"/>
<stop offset="0.162345" stop-color="#BABABA"/>
<stop offset="0.279225" stop-color="#B8B8B8"/>
<stop offset="0.381534" stop-color="#7A7A7A"/>
<stop offset="0.621584" stop-color="#7D7D7D"/>
<stop offset="0.722007" stop-color="#B1B1B1"/>
<stop offset="0.857232" stop-color="#BFBFBF"/>
<stop offset="0.950969" stop-color="#7D7D7D"/>
</linearGradient>
<linearGradient id="paint7_linear_205_118" x1="13.1723" y1="5.15515" x2="22.7273" y2="32.1776" gradientUnits="userSpaceOnUse">
<stop offset="0.0707273" stop-color="#797979"/>
<stop offset="0.162345" stop-color="#BABABA"/>
<stop offset="0.279225" stop-color="#B8B8B8"/>
<stop offset="0.381534" stop-color="#7A7A7A"/>
<stop offset="0.621584" stop-color="#7D7D7D"/>
<stop offset="0.722007" stop-color="#B1B1B1"/>
<stop offset="0.857232" stop-color="#BFBFBF"/>
<stop offset="0.950969" stop-color="#7D7D7D"/>
</linearGradient>
<linearGradient id="paint8_linear_205_118" x1="21.7786" y1="35.8982" x2="21.7786" y2="11.5729" gradientUnits="userSpaceOnUse">
<stop offset="0.0788189" stop-opacity="0"/>
<stop offset="0.53125" stop-opacity="0.1"/>
<stop offset="0.819691" stop-opacity="0"/>
</linearGradient>
<linearGradient id="paint9_linear_205_118" x1="14.5436" y1="0.947388" x2="14.5436" y2="25.2727" gradientUnits="userSpaceOnUse">
<stop offset="0.107012" stop-opacity="0"/>
<stop offset="0.53125" stop-opacity="0.14"/>
<stop offset="0.79323" stop-opacity="0"/>
</linearGradient>
<linearGradient id="paint10_linear_205_118" x1="18.1627" y1="5.15538" x2="18.1627" y2="31.6792" gradientUnits="userSpaceOnUse">
<stop offset="0.11771" stop-opacity="0"/>
<stop offset="0.53125" stop-opacity="0.12"/>
<stop offset="0.897419" stop-opacity="0"/>
</linearGradient>
<linearGradient id="paint11_linear_205_118" x1="18.0073" y1="0.342651" x2="18.0073" y2="36.7383" gradientUnits="userSpaceOnUse">
<stop stop-color="#003BFF"/>
<stop offset="0.504489" stop-color="#4E76FC"/>
<stop offset="1" stop-color="#00C2FF"/>
</linearGradient>
</defs>
</svg>
